:SAMPLES-PER-SECOND 30
:FULLY-SPECIFIED
:DEGREES
56
root  14.1436 40.0493 0.890092 -100.441 -88.7769 97.002
RightUpLeg  3.12747 -8.19866 -4.54421
RightLeg  3.86787 3.40261 -0.145841
RightFoot  -3.83595 -0.102482 1.14649
RightToes  4.6566e-010 0 -3.6325e-017
Spine  3.39994 0.197113 1.01138
Spine1  2.09673 0.509857 -1.10681
HEad  -5.35774 -6.21071 -2.15505
LeftShoulder1  0.178043 1.81911 -2.51671
LeftArm  -21.7143 2.64281 -15.586
LeftForeArm  -1.23895 1.59923 2.77463
LeftHand  -0.0906682 2.41833 3.12151
RightShoulder  0.084902 -2.44009 0.979689
RightArm  -11.297 1.75196 9.86747
RightForeArm  -3.53647 -1.93292 -3.37631
RightHand  -0.188082 6.73016 -2.1472
LeftUpLeg  3.04578 7.02473 3.89206
LeftLeg  1.78783 -3.13492 0.403886
LeftFoot  -1.2542 0.047296 -0.410165
LeftToes  -4.59298e-010 2.08438e-011 -1.27151e-011
57
root  14.1434 40.0494 0.888425 -100.525 -88.778 97.0865
RightUpLeg  3.13983 -8.20112 -4.54839
RightLeg  3.84338 3.40379 -0.13289
RightFoot  -3.83763 -0.102789 1.15126
RightToes  4.6566e-010 0 -3.6325e-017
Spine  3.47298 0.216157 1.02661
Spine1  1.94125 0.533159 -1.14181
HEad  -4.94599 -5.87748 -2.11462
LeftShoulder1  0.182433 1.74604 -2.38054
LeftArm  -21.6593 2.74966 -15.7151
LeftForeArm  -1.577 1.45746 2.72142
LeftHand  -0.0925991 2.6994 3.39647
RightShoulder  0.0861755 -2.43128 1.07016
RightArm  -11.2397 1.71892 9.71499
RightForeArm  -3.50263 -1.88594 -3.35919
RightHand  -0.177618 6.68082 -2.05371
LeftUpLeg  3.07146 7.0488 3.90849
LeftLeg  1.73091 -3.15924 0.388359
LeftFoot  -1.22383 0.0438279 -0.356268
LeftToes  -4.59298e-010 2.08438e-011 -1.27151e-011
58
root  14.1434 40.0495 0.88554 -98.5577 -88.7616 95.134
RightUpLeg  3.11628 -8.20792 -4.56508
RightLeg  3.86936 3.38778 -0.134704
RightFoot  -3.85483 -0.105702 1.19647
RightToes  4.6566e-010 0 -3.6325e-017
Spine  3.44403 0.197084 0.994178
Spine1  1.9743 0.517366 -1.16073
HEad  -4.72841 -5.5869 -2.06657
LeftShoulder1  0.187034 1.81108 -2.27836
LeftArm  -21.751 2.67341 -15.8097
LeftForeArm  -1.70025 1.40345 2.75687
LeftHand  -0.095289 2.78026 3.33585
RightShoulder  0.0876387 -2.46542 1.10578
RightArm  -11.3372 1.74723 9.70817
RightForeArm  -3.56426 -1.84348 -3.38026
RightHand  -0.18873 6.40912 -2.19512
LeftUpLeg  3.05848 7.05106 3.89575
LeftLeg  1.71138 -3.22376 0.366348
LeftFoot  -1.18143 0.0435227 -0.351526
LeftToes  -4.59298e-010 2.08438e-011 -1.27151e-011
59
root  14.145 40.0493 0.882696 -99.4514 -88.7629 96.0394
RightUpLeg  3.09704 -8.19401 -4.54841
RightLeg  3.86412 3.37562 -0.141388
RightFoot  -3.84173 -0.107378 1.22247
RightToes  4.6566e-010 0 -3.6325e-017
Spine  3.40162 0.209511 0.948418
Spine1  1.9668 0.5119 -1.06848
HEad  -3.99961 -5.43815 -2.37315
LeftShoulder1  0.190139 1.73889 -2.33582
LeftArm  -21.7834 2.68876 -15.7674
LeftForeArm  -1.87799 1.43067 2.78521
LeftHand  -0.0960201 2.71017 3.38292
RightShoulder  0.0893151 -2.41427 0.967148
RightArm  -11.3386 1.64935 9.78287
RightForeArm  -3.58214 -1.79811 -3.38449
RightHand  -0.189335 6.35142 -2.20927
LeftUpLeg  3.04102 7.03835 3.8949
LeftLeg  1.71745 -3.16169 0.384676
LeftFoot  -1.19429 0.0495447 -0.445112
LeftToes  -4.59298e-010 2.08438e-011 -1.27151e-011
60
root  14.1496 40.0491 0.882704 -97.8732 -88.7615 94.4764
RightUpLeg  3.06043 -8.20041 -4.55214
RightLeg  3.90039 3.36266 -0.14095
RightFoot  -3.82799 -0.103829 1.1674
RightToes  4.6566e-010 0 -3.6325e-017
Spine  3.33227 0.182739 0.932512
Spine1  1.99817 0.474347 -1.01563
HEad  -3.44836 -5.1916 -2.33621
LeftShoulder1  0.189872 1.71716 -2.48098
LeftArm  -21.7191 2.61175 -15.6065
LeftForeArm  -2.058 1.41363 2.72583
LeftHand  -0.0982245 2.96704 3.50085
RightShoulder  0.0912089 -2.40782 0.848854
RightArm  -11.5431 1.6655 9.90975
RightForeArm  -3.39602 -1.82236 -3.46749
RightHand  -0.179731 6.53633 -2.09104
LeftUpLeg  3.02642 6.98535 3.85205
LeftLeg  1.67368 -3.1647 0.438086
LeftFoot  -1.17615 0.0499954 -0.452117
LeftToes  -4.59298e-010 2.08438e-011 -1.27151e-011
61
root  14.1499 40.0489 0.881774 -99.6951 -88.7358 96.2853
RightUpLeg  3.07664 -8.20992 -4.5754
RightLeg  3.89372 3.40097 -0.14409
RightFoot  -3.83965 -0.10418 1.17284
RightToes  4.6566e-010 0 -3.6325e-017
Spine  3.21673 0.197595 1.01702
Spine1  2.15032 0.52403 -1.17829
HEad  -3.25339 -4.98844 -2.16843
LeftShoulder1  0.182615 1.77371 -2.38108
LeftArm  -21.7662 2.42754 -15.7299
LeftForeArm  -1.83517 1.47032 2.74802
LeftHand  -0.101673 2.65575 3.19189
RightShoulder  0.0933363 -2.50342 1.01975
RightArm  -11.5584 1.81001 9.85757
RightForeArm  -3.54376 -1.87994 -3.45081
RightHand  -0.18282 6.66047 -2.10551
LeftUpLeg  3.04581 7.0114 3.85573
LeftLeg  1.68565 -3.15148 0.394204
LeftFoot  -1.13399 0.0435827 -0.352459
LeftToes  -4.59298e-010 2.08438e-011 -1.27151e-011
62
root  14.1557 40.049 0.8806 -98.0709 -88.7479 94.6713
RightUpLeg  3.05943 -8.20683 -4.56723
RightLeg  3.89307 3.36919 -0.141239
RightFoot  -3.81559 -0.105112 1.18731
RightToes  4.6566e-010 0 -3.6325e-017
Spine  3.09571 0.148981 1.07151
Spine1  2.33611 0.489146 -1.24555
HEad  -3.30399 -4.84966 -2.54641
LeftShoulder1  0.174419 1.84169 -2.31496
LeftArm  -21.6968 2.42516 -15.839
LeftForeArm  -1.7591 1.39994 2.69069
LeftHand  -0.102196 2.592 3.29327
RightShoulder  0.0964582 -2.46187 0.947981
RightArm  -11.5446 1.68314 9.99336
RightForeArm  -3.62595 -1.72546 -3.43017
RightHand  -0.194269 6.59759 -2.22423
LeftUpLeg  3.0075 7.03687 3.87421
LeftLeg  1.70572 -3.17194 0.36456
LeftFoot  -1.0965 0.039414 -0.287674
LeftToes  -4.59298e-010 2.08438e-011 -1.27151e-011
